<?xml version="1.0" standalone="no"?>
<!DOCTYPE svg PUBLIC "-//W3C//DTD SVG 20010904//EN"
 "http://www.w3.org/TR/2001/REC-SVG-20010904/DTD/svg10.dtd">
<svg version="1.0" xmlns="http://www.w3.org/2000/svg"
 width="500.000000pt" height="250.000000pt" viewBox="0 0 500.000000 250.000000"
 preserveAspectRatio="xMidYMid meet">

<g transform="translate(0.000000,250.000000) scale(0.100000,-0.100000)"
fill="#000000" stroke="none">
<path d="M1682 1223 l3 -798 790 0 790 0 0 185 0 185 -90 0 -90 0 -5 -85 -5
-85 -600 0 -600 0 -3 698 -2 697 -95 0 -95 0 2 -797z m138 59 c0 -522 3 -691
12 -700 17 -17 1269 -17 1286 0 7 7 12 43 12 90 l0 78 45 0 45 0 0 -135 0
-135 -745 0 -745 0 0 745 0 745 45 0 45 0 0 -688z"/>
<path d="M2998 1839 c-25 -14 -24 -65 1 -79 11 -5 50 -10 88 -10 l68 0 -155
-150 c-85 -82 -159 -149 -165 -149 -5 -1 -66 49 -135 109 -101 89 -130 110
-152 108 -21 -2 -96 -68 -298 -261 -273 -260 -291 -282 -258 -315 31 -31 57
-12 304 223 135 129 252 235 258 235 6 -1 67 -50 136 -110 85 -75 132 -110
149 -110 17 0 57 32 140 113 151 147 230 221 242 225 5 2 9 -30 9 -72 0 -71 2
-77 25 -88 19 -9 29 -8 50 6 25 16 25 17 25 161 0 183 8 175 -180 175 -74 0
-143 -5 -152 -11z m297 -164 c0 -133 -1 -140 -20 -140 -18 0 -20 8 -25 95 -3
52 -9 94 -13 93 -5 -1 -92 -82 -194 -180 -102 -98 -191 -181 -197 -185 -8 -4
-68 41 -150 113 -76 65 -141 119 -145 119 -4 0 -124 -110 -266 -245 -210 -200
-260 -243 -272 -233 -12 9 -6 19 34 60 98 100 495 473 503 473 5 0 70 -53 144
-117 74 -65 138 -118 143 -118 19 2 366 347 359 358 -5 8 -39 12 -96 12 -49 0
-92 5 -95 10 -16 25 11 30 148 28 l142 -3 0 -140z"/>
<path d="M2341 1283 c-110 -103 -201 -190 -201 -195 0 -24 28 1 383 330 l27
26 31 -23 c17 -13 34 -20 37 -16 7 7 -52 65 -67 65 -5 0 -99 -84 -210 -187z"/>
<path d="M2668 1348 c12 -12 24 -19 28 -15 10 10 -16 37 -34 37 -13 0 -12 -4
6 -22z"/>
<path d="M2722 1309 c2 -7 10 -15 17 -17 8 -3 12 1 9 9 -2 7 -10 15 -17 17 -8
3 -12 -1 -9 -9z"/>
</g>
</svg>
